<svg xmlns="http://www.w3.org/2000/svg" width="51" height="21" viewBox="0 0 51 21" role="img" aria-label="TKL"><title>TKL</title><circle cx="1.5" cy="1.5" r="1.26"/><circle cx="4.5" cy="1.5" r="1.26"/><circle cx="7.5" cy="1.5" r="1.26"/><circle cx="10.5" cy="1.5" r="1.26"/><circle cx="13.5" cy="1.5" r="1.26"/><circle cx="7.5" cy="4.5" r="1.26"/><circle cx="7.5" cy="7.5" r="1.26"/><circle cx="7.5" cy="10.5" r="1.26"/><circle cx="7.5" cy="13.5" r="1.26"/><circle cx="7.5" cy="16.5" r="1.26"/><circle cx="7.5" cy="19.5" r="1.26"/><circle cx="19.5" cy="1.5" r="1.26"/><circle cx="31.5" cy="1.5" r="1.26"/><circle cx="19.5" cy="4.5" r="1.26"/><circle cx="28.5" cy="4.5" r="1.26"/><circle cx="19.5" cy="7.5" r="1.26"/><circle cx="25.5" cy="7.5" r="1.26"/><circle cx="19.5" cy="10.5" r="1.26"/><circle cx="22.5" cy="10.5" r="1.26"/><circle cx="19.5" cy="13.5" r="1.26"/><circle cx="25.5" cy="13.5" r="1.26"/><circle cx="19.5" cy="16.5" r="1.26"/><circle cx="28.5" cy="16.5" r="1.26"/><circle cx="19.5" cy="19.5" r="1.26"/><circle cx="31.5" cy="19.5" r="1.26"/><circle cx="37.5" cy="1.5" r="1.26"/><circle cx="37.5" cy="4.5" r="1.26"/><circle cx="37.5" cy="7.5" r="1.26"/><circle cx="37.5" cy="10.5" r="1.26"/><circle cx="37.5" cy="13.5" r="1.26"/><circle cx="37.5" cy="16.5" r="1.26"/><circle cx="37.5" cy="19.5" r="1.26"/><circle cx="40.5" cy="19.5" r="1.26"/><circle cx="43.5" cy="19.5" r="1.26"/><circle cx="46.5" cy="19.5" r="1.26"/><circle cx="49.5" cy="19.5" r="1.26"/></svg>
